<?xml version="1.0" standalone="no"?>
<!DOCTYPE svg PUBLIC "-//W3C//DTD SVG 20010904//EN"
 "http://www.w3.org/TR/2001/REC-SVG-20010904/DTD/svg10.dtd">
<svg version="1.0" xmlns="http://www.w3.org/2000/svg"
 width="300.000000pt" height="300.000000pt" viewBox="0 0 300.000000 300.000000"
 preserveAspectRatio="xMidYMid meet">
<metadata>
Created by potrace 1.14, written by Peter Selinger 2001-2017
</metadata>
<g transform="translate(0.000000,300.000000) scale(0.100000,-0.100000)"
fill="#000000" stroke="none">
<path d="M0 1500 l0 -1500 1500 0 1500 0 0 1500 0 1500 -1500 0 -1500 0 0
-1500z m200 1441 c0 -5 9 -11 20 -14 19 -5 20 -14 20 -146 0 -134 -1 -141 -20
-141 -11 0 -20 7 -20 15 0 12 -13 15 -59 15 -45 0 -60 4 -65 16 -4 10 0 17 11
20 16 5 18 17 15 124 l-3 120 50 0 c28 0 51 -4 51 -9z m2720 -1 c0 -5 7 -10
15 -10 13 0 15 -143 15 -1225 0 -1084 -2 -1224 -15 -1219 -9 4 -15 0 -15 -10
0 -9 -7 -16 -15 -16 -13 0 -15 129 -15 1105 l0 1105 -172 2 c-131 2 -172 6
-176 16 -2 7 5 16 17 19 19 5 21 13 21 79 0 67 -2 74 -20 74 -11 0 -20 5 -20
10 0 5 -9 19 -20 30 -20 20 -33 20 -855 20 -550 0 -835 -3 -835 -10 0 -5 -7
-10 -15 -10 -8 0 -15 -8 -15 -17 -4 -738 2 -2049 10 -2051 13 -5 13 -32 0 -32
-5 0 -10 7 -10 15 0 8 -9 15 -20 15 -20 0 -20 7 -20 920 l0 920 -60 0 c-47 0
-60 -3 -60 -15 0 -8 -7 -15 -15 -15 -8 0 -15 7 -15 15 0 8 7 15 15 15 8 0 15
9 15 20 0 11 7 20 15 20 13 0 15 20 15 120 l0 120 1125 0 c743 0 1125 -3 1125
-10z m-2400 -140 c0 -57 1 -60 25 -60 45 0 28 -27 -21 -34 -65 -8 -252 -8
-257 2 -2 4 -2 40 1 80 l4 72 124 0 124 0 0 -60z m-450 -145 c0 -8 -4 -15 -10
-15 -5 0 -10 7 -10 15 0 8 5 15 10 15 6 0 10 -7 10 -15z m450 -150 c0 -41 2
-45 25 -45 18 0 25 -5 25 -20 0 -19 -7 -20 -154 -20 l-154 0 4 63 c2 34 4 63
4 65 0 1 56 2 125 2 l125 0 0 -45z m650 -255 c0 -38 -4 -50 -15 -50 -11 0 -15
12 -15 50 0 38 4 50 15 50 11 0 15 -12 15 -50z m-600 -72 c0 -13 3 -33 6 -45
l6 -23 -160 0 -161 0 2 45 2 45 153 0 c151 0 152 0 152 -22z m1640 -143 c0
-12 -14 -15 -70 -15 -56 0 -70 3 -70 15 0 12 14 15 70 15 56 0 70 -3 70 -15z
m-1920 -131 c0 -17 -22 -14 -28 4 -2 7 3 12 12 12 9 0 16 -7 16 -16z m280 1
c0 -8 -7 -15 -15 -15 -8 0 -15 7 -15 15 0 8 7 15 15 15 8 0 15 -7 15 -15z
m1600 -30 c0 -33 -4 -45 -15 -45 -11 0 -15 12 -15 45 0 33 4 45 15 45 11 0 15
-12 15 -45z m-1880 -250 c0 -8 -4 -15 -9 -15 -5 0 -11 7 -15 15 -3 9 0 15 9
15 8 0 15 -7 15 -15z m280 0 c0 -8 -7 -15 -15 -15 -8 0 -15 7 -15 15 0 8 7 15
15 15 8 0 15 -7 15 -15z m1600 -155 c0 -11 -7 -20 -15 -20 -8 0 -15 9 -15 20
0 11 7 20 15 20 8 0 15 -9 15 -20z m-530 -30 c0 -13 -5 -18 -15 -14 -8 4 -15
12 -15 20 0 8 7 14 15 14 8 0 15 -9 15 -20z m-340 0 c0 -5 -16 -10 -35 -10
-19 0 -35 5 -35 10 0 6 16 10 35 10 19 0 35 -4 35 -10z m300 -30 c0 -5 -4 -10
-10 -10 -5 0 -10 5 -10 10 0 6 5 10 10 10 6 0 10 -4 10 -10z m568 -63 c2 -37
0 -47 -12 -47 -12 0 -16 12 -16 51 0 66 24 62 28 -4z m-594 28 c3 -9 0 -15 -9
-15 -8 0 -15 -7 -15 -15 0 -8 -9 -15 -20 -15 -11 0 -20 7 -20 15 0 8 9 15 20
15 11 0 20 7 20 15 0 8 4 15 9 15 5 0 11 -7 15 -15z m-1284 -30 c0 -8 -7 -15
-15 -15 -9 0 -12 6 -9 15 4 8 10 15 15 15 5 0 9 -7 9 -15z m280 0 c0 -8 -7
-15 -15 -15 -8 0 -15 7 -15 15 0 8 7 15 15 15 8 0 15 -7 15 -15z m510 -30 c0
-10 -10 -15 -29 -15 -16 0 -31 6 -35 15 -4 12 3 15 29 15 24 0 35 -5 35 -15z
m120 -30 c0 -8 -7 -15 -15 -15 -8 0 -15 7 -15 15 0 8 7 15 15 15 8 0 15 -7 15
-15z m130 0 c0 -11 -12 -15 -50 -15 -38 0 -50 4 -50 15 0 11 12 15 50 15 38 0
50 -4 50 -15z m60 0 c0 -8 -7 -15 -15 -15 -8 0 -15 7 -15 15 0 8 7 15 15 15 8
0 15 -7 15 -15z m468 -17 c-4 -46 -28 -49 -28 -4 0 26 4 36 16 36 11 0 14 -8
12 -32z m310 -15 c-5 -25 -28 -28 -28 -4 0 12 6 21 16 21 9 0 14 -7 12 -17z
m-1878 -188 c0 -8 -7 -15 -15 -15 -16 0 -20 12 -8 23 11 12 23 8 23 -8z m280
0 c0 -8 -7 -15 -15 -15 -16 0 -20 12 -8 23 11 12 23 8 23 -8z m1640 -125 c0
-6 -30 -10 -70 -10 -40 0 -70 4 -70 10 0 6 30 10 70 10 40 0 70 -4 70 -10z
m330 -125 c0 -8 -4 -15 -10 -15 -5 0 -10 7 -10 15 0 8 5 15 10 15 6 0 10 -7
10 -15z m-2250 -30 c0 -8 -7 -15 -15 -15 -16 0 -20 12 -8 23 11 12 23 8 23 -8z
m280 0 c0 -8 -7 -15 -15 -15 -16 0 -20 12 -8 23 11 12 23 8 23 -8z m1940 0 c0
-13 -101 -15 -845 -15 -746 0 -844 2 -839 15 5 13 109 15 845 15 739 0 839 -2
839 -15z m-2220 -284 c0 -6 -4 -13 -10 -16 -5 -3 -10 1 -10 9 0 9 5 16 10 16
6 0 10 -4 10 -9z m280 -6 c0 -9 -6 -12 -15 -9 -8 4 -15 10 -15 15 0 5 7 9 15
9 8 0 15 -7 15 -15z m-240 -355 c0 -53 -2 -60 -20 -60 -11 0 -20 -7 -20 -15 0
-9 -9 -15 -25 -15 -16 0 -25 6 -25 15 0 8 -9 15 -20 15 -18 0 -20 7 -20 60 l0
60 65 0 65 0 0 -60z m190 0 c0 -53 -2 -60 -20 -60 -11 0 -20 -7 -20 -15 0 -10
-10 -15 -30 -15 -20 0 -30 5 -30 15 0 8 -6 15 -14 15 -23 0 -27 15 -20 70 l7
50 63 0 64 0 0 -60z m184 14 c9 -68 8 -74 -14 -74 -11 0 -20 -7 -20 -15 0 -10
-10 -15 -30 -15 -19 0 -30 5 -30 14 0 7 -9 16 -20 19 -17 4 -20 14 -20 61 l0
56 64 0 63 0 7 -46z m186 -14 c0 -53 -2 -60 -20 -60 -11 0 -20 -7 -20 -15 0
-9 -9 -15 -25 -15 -16 0 -25 6 -25 15 0 8 -9 15 -20 15 -18 0 -20 7 -20 60 l0
60 65 0 65 0 0 -60z m190 0 c0 -53 -2 -60 -20 -60 -11 0 -20 -7 -20 -15 0 -9
-9 -15 -25 -15 -16 0 -25 6 -25 15 0 8 -9 15 -20 15 -18 0 -20 7 -20 60 l0 60
65 0 65 0 0 -60z m190 0 c0 -53 -2 -60 -20 -60 -11 0 -20 -7 -20 -15 0 -10
-10 -15 -30 -15 -20 0 -30 5 -30 15 0 8 -6 15 -14 15 -23 0 -27 15 -20 70 l7
50 63 0 64 0 0 -60z m184 14 c9 -68 8 -74 -14 -74 -11 0 -20 -7 -20 -15 0 -10
-10 -15 -30 -15 -19 0 -30 5 -30 14 0 7 -9 16 -20 19 -17 4 -20 14 -20 61 l0
56 64 0 63 0 7 -46z m186 -14 c0 -53 -2 -60 -20 -60 -11 0 -20 -7 -20 -15 0
-9 -9 -15 -25 -15 -16 0 -25 6 -25 15 0 8 -9 15 -20 15 -18 0 -20 7 -20 60 l0
60 65 0 65 0 0 -60z m190 0 c0 -53 -2 -60 -20 -60 -11 0 -20 -7 -20 -15 0 -9
-9 -15 -25 -15 -16 0 -25 6 -25 15 0 8 -9 15 -20 15 -18 0 -20 7 -20 60 l0 60
65 0 65 0 0 -60z m190 0 c0 -53 -2 -60 -20 -60 -11 0 -20 -7 -20 -15 0 -10
-10 -15 -30 -15 -20 0 -30 5 -30 15 0 8 -6 15 -14 15 -23 0 -27 15 -20 70 l7
50 63 0 64 0 0 -60z m184 14 c9 -68 8 -74 -14 -74 -11 0 -20 -7 -20 -15 0 -10
-10 -15 -30 -15 -19 0 -30 5 -30 14 0 7 -9 16 -20 19 -17 4 -20 14 -20 61 l0
56 64 0 63 0 7 -46z m186 -14 c0 -53 -2 -60 -20 -60 -11 0 -20 -7 -20 -15 0
-9 -9 -15 -25 -15 -16 0 -25 6 -25 15 0 8 -9 15 -20 15 -18 0 -20 7 -20 60 l0
60 65 0 65 0 0 -60z m190 0 c0 -53 -2 -60 -20 -60 -11 0 -20 -7 -20 -15 0 -9
-9 -15 -25 -15 -16 0 -25 6 -25 15 0 8 -9 15 -20 15 -18 0 -20 7 -20 60 l0 60
65 0 65 0 0 -60z m190 0 c0 -53 -2 -60 -20 -60 -11 0 -20 -7 -20 -15 0 -10
-10 -15 -30 -15 -20 0 -30 5 -30 15 0 8 -6 15 -14 15 -23 0 -27 15 -20 70 l7
50 63 0 64 0 0 -60z"/>
</g>
</svg>
